<?xml version="1.0" encoding="UTF-8"?>
<svg id="Camada_1" data-name="Camada 1" xmlns="http://www.w3.org/2000/svg" viewBox="0 0 426.11 144">
  <defs>
    <style>
      .cls-1 {
        fill: #8f8f7a;
      }
    </style>
  </defs>
  <path class="cls-1" d="M306.7,62.2c-1.45-.65-3.17-.97-5.17-.97h-9.67v22.35h5.2v-6.16h4.47c2,0,3.73-.33,5.17-.99,1.45-.66,2.56-1.59,3.35-2.79.79-1.2,1.18-2.65,1.18-4.33s-.39-3.1-1.18-4.31c-.79-1.21-1.91-2.14-3.35-2.79ZM304.82,72.18c-.81.68-2,1.02-3.58,1.02h-4.18v-7.76h4.18c1.57,0,2.77.33,3.58,1.01.81.67,1.21,1.62,1.21,2.86s-.4,2.19-1.21,2.87Z"/>
  <rect class="cls-1" x="314.91" y="61.23" width="5.2" height="22.35"/>
  <polygon class="cls-1" points="330.58 61.23 325.38 61.23 325.38 83.58 341.73 83.58 341.73 79.36 330.58 79.36 330.58 61.23"/>
  <path class="cls-1" d="M351.78,61.23l-9.93,22.35h5.3l1.99-4.79h10.35l1.99,4.79h5.43l-10.03-22.35h-5.11ZM350.78,74.86l3.54-8.52,3.54,8.52h-7.09Z"/>
  <polygon class="cls-1" points="365.61 65.44 372.76 65.44 372.76 83.58 377.93 83.58 377.93 65.44 385.08 65.44 385.08 61.23 365.61 61.23 365.61 65.44"/>
  <polygon class="cls-1" points="393 74.25 403.38 74.25 403.38 70.2 393 70.2 393 65.38 404.75 65.38 404.75 61.23 387.86 61.23 387.86 83.58 405.17 83.58 405.17 79.43 393 79.43 393 74.25"/>
  <path class="cls-1" d="M425.39,74.14c-.48-.78-1.1-1.39-1.87-1.85-.77-.46-1.61-.84-2.52-1.13-.92-.3-1.84-.55-2.78-.75-.94-.2-1.79-.41-2.55-.61-.77-.2-1.39-.48-1.85-.85-.47-.36-.7-.84-.7-1.44,0-.47.15-.89.43-1.28.29-.38.74-.69,1.36-.91.62-.22,1.44-.34,2.46-.34s2,.14,3.07.43c1.06.29,2.1.72,3.1,1.29l1.63-3.9c-1.02-.64-2.22-1.13-3.59-1.47-1.37-.34-2.76-.51-4.17-.51-2.11,0-3.86.31-5.25.94s-2.43,1.47-3.11,2.52c-.68,1.05-1.02,2.22-1.02,3.49,0,1.17.23,2.15.69,2.92.46.78,1.07,1.41,1.85,1.88.78.48,1.63.86,2.55,1.15s1.85.53,2.76.73c.92.2,1.76.42,2.54.64.78.22,1.4.51,1.87.86.47.35.7.83.7,1.42,0,.47-.15.88-.45,1.23-.3.35-.76.63-1.39.85-.63.21-1.45.32-2.47.32-1.34,0-2.67-.22-3.99-.66-1.32-.43-2.45-.99-3.38-1.67l-1.76,3.89c1,.77,2.32,1.39,3.98,1.87,1.65.48,3.37.72,5.16.72,2.11,0,3.86-.32,5.27-.96,1.4-.64,2.45-1.48,3.14-2.52.69-1.04,1.04-2.19,1.04-3.45,0-1.15-.24-2.11-.72-2.89Z"/>
  <path class="cls-1" d="M28.31,30.83H0v84.74c0,15.69,12.73,28.43,28.43,28.43h56.45v-28.31H28.31V30.83Z"/>
  <path class="cls-1" d="M179.19,87.41c0,15.63-12.67,28.29-28.29,28.29s-28.31-12.65-28.31-28.29V30.83h-28.29v56.57c0,20.94,11.37,39.23,28.29,48.98,4.37,2.57,9.12,4.53,14.14,5.84,4.53,1.16,9.27,1.78,14.16,1.78s9.61-.61,14.14-1.78c5.02-1.31,9.76-3.27,14.14-5.84,16.92-9.76,28.29-28.04,28.29-48.98V30.83h-28.29v56.57Z"/>
  <circle class="cls-1" cx="258.73" cy="13.17" r="13.17" transform="translate(3.89 59.8) rotate(-13.28)"/>
  <path class="cls-1" d="M254.72,78.53c-.37-13.01,1.65-25.87,6-38.22l-26.01-9.17c-5.49,15.57-8.03,31.78-7.56,48.18.69,24.12,12.67,46.53,19.1,58.57.75,1.4,1.42,2.65,1.97,3.72l24.54-12.58c-.61-1.19-1.35-2.58-2.18-4.14-5.37-10.04-15.35-28.73-15.86-46.36Z"/>
</svg>